<svg xmlns="http://www.w3.org/2000/svg" width="256" height="256"><path fill="#1976D2" fill-opacity=".016" fill-rule="evenodd" d="M0 128.004v128.004l128.25-.254 128.25-.254.254-127.75L257.008 0H0zm.485.496c0 70.4.119 99.053.265 63.672s.146-92.98 0-128S.485 58.1.485 128.5"/><path fill="#1976D2" fill-opacity=".247" fill-rule="evenodd" d="M93.5 15.99c-4.413.941-15.155 5.643-15.994 7-.292.473 2.062 1.587 5.231 2.474 7.554 2.114 9.338 3.067 13.726 7.328 4.584 4.453 6.398 7.912 7.194 13.721.738 5.386-1.726 15.821-5.28 22.363C97.07 71.283 96 73.36 96 73.493s1.78 1.419 3.955 2.859c2.176 1.439 8.043 6.751 13.038 11.804l9.082 9.186-.288-35-.287-35.001-2.808-3.68c-1.544-2.024-4.474-4.529-6.51-5.568-4.476-2.284-13.222-3.268-18.682-2.103m55-.015c-1.245.52.076.648 3.5.341 3.025-.271 6.625-.011 8 .579 2.195.942 2.042 1-1.257.476-6.287-.998-12.37.461-17.157 4.115-2.422 1.849-4.662 3.104-4.977 2.789s-1.472 1.407-2.569 3.826c-1.841 4.057-1.998 6.582-2.018 32.512L132 88.726l4.75 4.418c4.936 4.59 18.833 15.856 19.559 15.856.228 0 .716-3.037 1.085-6.75s1.612-9.767 2.763-13.455l2.093-6.704-4.092-4.649c-4.717-5.358-7.96-13.217-8.792-21.301-.547-5.327.527-10.13 4.151-18.555.636-1.48.513-1.723-.544-1.069-2.535 1.566 3.137-5.5 6.347-7.907 4.359-3.269 11.568-6.601 12.171-5.625.272.441-.739 1.105-2.248 1.477-3.406.838-11.587 5.527-10.879 6.235.286.287 1.784-.361 3.328-1.439 1.545-1.078 5.006-2.787 7.692-3.796l4.884-1.836-2.884-2.321c-6.128-4.929-17.497-7.578-22.884-5.33m-7.25 3.14c-1.787 1.145-3.25 2.566-3.25 3.158 0 .591 1.012.159 2.25-.962s3.15-2.536 4.25-3.144 1.55-1.112 1-1.12c-.55-.007-2.463.923-4.25 2.068m21.833-.742c1.029.921 6.917 3.626 6.917 3.178 0-.576-5.544-3.551-6.617-3.551-.394 0-.529.168-.3.373m-27.921 9.17c-.639 1.403-1.142 3.317-1.118 4.254s.679-.08 1.455-2.259c1.613-4.528 1.398-5.802-.337-1.995M64.1 31.108C58.441 33.936 46 44.15 46 45.968c0 .415 2.362 1.031 5.25 1.37 7.062.83 17.308 6.082 28.505 14.612 5.09 3.877 9.854 7.05 10.587 7.05s2.62-2.588 4.192-5.75c3.888-7.819 4.597-17.684 1.618-22.504-2.836-4.589-10.229-9.681-16.464-11.341-7.29-1.941-8.578-1.8-15.588 1.703m107.472-1.09c-8.114 3.168-16.46 12.609-15.056 17.032.35 1.102.155 1.95-.449 1.95-.615 0-1.067 2.14-1.067 5.059 0 2.782.408 4.807.907 4.499.498-.309.683.295.409 1.341-.915 3.5 5.713 15.101 8.627 15.101.477 0 2.206-2.373 3.843-5.274 3.598-6.377 14.189-16.519 19.96-19.116 2.31-1.039 3.917-2.346 3.572-2.904-.348-.564-.134-.711.482-.33 1.377.851 6.357-.313 5.723-1.338-.254-.412.609-.544 1.918-.294 1.31.25 3.133.034 4.052-.48 2.545-1.424-9.98-12.554-17.142-15.234-6.646-2.486-9.437-2.488-15.779-.012m6.19-.311c1.244.239 3.044.23 4-.02s-.062-.446-2.262-.435-2.982.216-1.738.455m10.871 2.775c2.823 1.408 7.323 4.395 10 6.638l4.867 4.078-4.909-4.656c-5.044-4.783-8.223-6.791-12.591-7.954-1.375-.366-.19.486 2.633 1.894m-32.335-.256c-2.268 2.929-2.408 4.116-.241 2.052 1.282-1.222 2.084-2.471 1.78-2.774-.304-.304-.996.021-1.539.722M169 32c-.825.533-1.05.969-.5.969s1.675-.436 2.5-.969 1.05-.969.5-.969-1.675.436-2.5.969m-35.645 10.5c-.003 4.95.166 7.101.376 4.78.209-2.321.212-6.371.005-9-.206-2.629-.378-.73-.381 4.22m28.749-4.965c-1.707 1.944-3.099 3.856-3.093 4.25.006.393 1.158-.74 2.56-2.519 1.402-1.778 3.309-3.677 4.239-4.219s1.174-1 .544-1.017c-.631-.016-2.543 1.561-4.25 3.505m-4.645 6.532c-.363.586-.445 1.281-.183 1.543s.743-.218 1.069-1.067c.676-1.762.1-2.072-.886-.476M148.158 47c0 1.375.227 1.938.504 1.25.278-.687.278-1.812 0-2.5-.277-.687-.504-.125-.504 1.25m39.283 2.555c-1.864 1.494-1.852 1.512.309.465 1.238-.6 2.25-1.3 2.25-1.555 0-.765-.519-.544-2.559 1.09m17.172 1.615c-2.687.387-5.332 1.149-5.876 1.693-2.07 2.07.684 6.826 8.735 15.086 9.93 10.19 11.94 14.225 11.066 22.221-.556 5.089-.414 5.735 1.388 6.307 2.145.68 10.826-.658 15.263-2.354 4.018-1.535 5.157-4.518 4.482-11.741-.656-7.032-4.709-16.077-9.801-21.877-3.856-4.392-11.348-8.919-13.434-8.119-.847.325-1.295.195-.996-.289.774-1.252-5.079-1.753-10.827-.927M36.129 52.477c-8.182 3.71-20.447 20.141-22.598 30.273-.661 3.113.562 4.526 1.96 2.265.334-.541 3.71-2.827 7.501-5.08 11.55-6.861 27.998-11.649 43.877-12.772l9.369-.663-5.869-4.389c-12.275-9.18-26.448-13.168-34.24-9.634M191.018 55.5c-.14.55-.207 1.321-.148 1.714s-.469.493-1.171.224c-1.692-.649-9.901 6.425-9.052 7.801.364.588.203.786-.359.439-1.337-.826-3.332 1.528-7.272 8.581l-3.217 5.758 2.351 1.956c2.804 2.334 15.807 8.941 18.688 9.496 1.118.215 2.849.813 3.847 1.328 3.404 1.758 15.39 3.528 16.483 2.435 1.75-1.75 1.46-10.504-.493-14.839-1.03-2.288-3.935-5.722-6.674-7.892-5.731-4.539-11.625-11.986-12.27-15.501-.252-1.375-.573-2.05-.713-1.5M58.5 72.974c-13.804 2.296-29.399 8.698-39.202 16.094l-5.201 3.924 2.201 4.16c3.677 6.947 6.433 8.055 18.702 7.516 11.917-.523 24.034-3.432 30.789-7.39 5.242-3.072 16.953-14.498 19.488-19.013 1.752-3.121 1.745-3.183-.5-4.416-2.726-1.496-19.236-2.046-26.277-.875m32.6 7.839c-.533.997-4.818 6.059-9.522 11.25-4.703 5.19-8.558 9.713-8.565 10.051s2.125 1.423 4.737 2.412c13.381 5.065 27.324 17.914 36.669 33.792 3.069 5.216 5.581 9.978 5.581 10.583 0 .604.45 1.099 1 1.099.636 0 1.004-7.924 1.01-21.75l.011-21.75-13.978-13.75C100.355 85.188 93.617 79 93.068 79s-1.434.816-1.968 1.813m74.783 8.937c-1.487 3.832-2.839 13.621-2.863 20.728l-.02 5.978 6.161 5.772c3.388 3.175 6.666 5.772 7.284 5.772 1.193 0 14.014-8.592 19.055-12.769 4.613-3.823 11.577-12.297 10.946-13.318-.31-.502-1.947-.913-3.636-.913-5.897 0-24.433-7.261-32.283-12.647-2.788-1.913-3.435-1.718-4.644 1.397m72.246 8.955c-3.99 1.884-7.748 2.699-14.607 3.166l-9.236.629-5.192 6.868c-2.856 3.777-5.057 6.951-4.893 7.053s4.799.937 10.299 1.856c17.09 2.853 29.243 10.499 34.488 21.698 1.295 2.764 2.672 5.025 3.062 5.025.714 0 1.876-2.675 3.864-8.899 1.364-4.268 1.426-17.773.086-18.601-.55-.34-1-1.323-1-2.184 0-2.011-4.807-12.986-7.255-16.566-2.254-3.295-2.734-3.297-9.616-.045M6.765 102.332C2.108 109.705 1 114.311 1 126.305c0 9.766 1.344 17.8 2.951 17.641.302-.03 1.899-2.152 3.549-4.716 7.816-12.146 26.832-20.748 47.688-21.572 3.879-.154 4.062-.324 6.461-6.015 1.359-3.222 2.261-6.066 2.006-6.321s-3.544.424-7.309 1.509c-23.515 6.777-39.52 4.965-44.104-4.994-.958-2.082-1.967-3.796-2.242-3.809s-1.731 1.923-3.235 4.304M132 135c0 19.25.364 35 .81 35 .445 0 2.72-2.885 5.055-6.411 4.94-7.459 19.311-21.643 26.885-26.535 2.887-1.865 5.25-3.662 5.25-3.994 0-2.17-34.327-33.046-36.75-33.055-.976-.004-1.25 7.659-1.25 34.995m-65.158-22.376c-1.724 3.897-1.999 6.129-1.639 13.28.282 5.601 1.062 9.816 2.239 12.096 2.843 5.506 8.018 11.394 11.811 13.437l3.475 1.871 7.408-5.122c4.075-2.816 8.965-6.726 10.866-8.688l3.458-3.568-2.385-4.495c-4.733-8.922-20.049-20.444-30.368-22.845-2.576-.599-2.954-.285-4.865 4.034m-21.295 11.487c-7.322 1.067-11.459 2.344-18.484 5.705C20.19 133.105 11 142.089 11 145.519c0 3.928 6.402 10.076 14.822 14.236l7.581 3.745 13.048-.004c11.094-.004 14.012-.35 19.478-2.311 10.928-3.92 10.715-3.381 3.994-10.102-6.198-6.198-9.541-12.387-10.488-19.421-1.153-8.557-1.216-8.672-4.704-8.54-1.777.067-5.91.512-9.184.989m149.91.695c-2.224.932-6.384 3.151-9.244 4.931l-5.2 3.236 7.459 7.339c8.905 8.762 12.504 15.537 12.518 23.566l.01 5.378 3.99-.638c10.833-1.733 27.716-11.462 33.743-19.446 4.545-6.02 4.337-9.135-.949-14.266-2.319-2.25-6.36-5.178-8.981-6.506-10.235-5.186-25.595-6.842-33.346-3.594M168 142.461c-4.125 2.969-8.85 6.553-10.5 7.965l-3 2.566 2.497 2.114c5.343 4.524 22.505 11.49 32.663 13.258 3.546.617 4.354-.449 4.318-5.696-.037-5.294-3.574-11.413-10.82-18.717-3.793-3.823-7.068-6.937-7.277-6.919-.21.017-3.756 2.461-7.881 5.429m-64 1.792c-1.925 2.247-6.612 6.104-10.416 8.572l-6.916 4.487 3.916 3.029c6.969 5.39 15.848 15.031 18.633 20.234 4.225 7.891 5.887 15.668 5.86 27.425-.022 9.452-1.227 19.816-2.555 21.965-.276.445 2.018 2.962 5.096 5.592l5.597 4.782-.508-30.92c-.517-31.375-.891-34.898-5.195-48.919-1.675-5.458-8.707-20.55-9.512-20.415-.275.047-2.075 1.922-4 4.168m134.31 12.431c-6.649 6.78-9.753 9.098-16.5 12.324-8.13 3.887-15.937 5.992-22.223 5.992-2.56 0-4.425 1.294-10.087 7l-6.946 7 6.973-.008c15.473-.018 33.077-3.066 42.901-7.426 12.935-5.741 19.743-17.739 16.546-29.16-.679-2.423-1.513-4.331-1.854-4.239s-4.305 3.924-8.81 8.517m-232.68-.582c-.917 4.581.292 10.778 3.144 16.128 3.111 5.834 10.429 11.1 19.313 13.897 6.206 1.954 32.356 4.764 33.518 3.602.306-.307-1.504-3.088-4.023-6.181s-5.451-7.33-6.515-9.417l-1.936-3.794-9.617-1.182c-11.754-1.445-20.418-5.114-27.321-11.571C9.498 155.063 7.058 153 6.771 153s-.8 1.396-1.141 3.102m141.294 7.148c-5.02 6.908-9.594 15.772-11.995 23.25-2.006 6.243-2.289 9.514-2.624 30.25-.216 13.365.006 23.25.523 23.25.494 0 2.918-2.159 5.386-4.798 4.175-4.463 4.536-5.284 5.177-11.789 1.402-14.236 8.458-23.58 25.609-33.913 5.856-3.528 12.639-8.188 15.073-10.356l4.427-3.941-2.5-.987c-1.375-.543-5.2-1.754-8.5-2.692s-10.637-4.14-16.305-7.115S150.692 159 150.451 159s-1.828 1.912-3.527 4.25m-72.424.382c-3.3 1.35-8.633 3.081-11.852 3.846-3.218.766-6.123 1.664-6.456 1.997-.98.979 2.96 7.478 7.791 12.851 2.469 2.746 9.456 8.217 15.526 12.158 12.842 8.338 18.079 13.912 23.394 24.9 2.097 4.336 4.059 7.486 4.359 7 1.132-1.834 2.738-12.991 2.738-19.018 0-12.3-3.759-22.219-12.061-31.829-4.73-5.475-15.203-14.594-16.593-14.449-.465.049-3.546 1.193-6.846 2.544m145.821 27.373c-5.927 2.388-22.219 4.221-33.256 3.74-13.095-.57-16.841.324-24.317 5.797-5.022 3.678-11.031 11.091-10.446 12.89.537 1.654 10.291 3.365 19.788 3.472 16.448.184 32.721-6.119 44.681-17.306q13.446-12.58 3.55-8.593M30.886 194.84c11.297 15.865 40.922 26.346 58.614 20.738l4-1.267-6-5.938c-3.3-3.266-8.925-7.712-12.5-9.881-6.496-3.939-6.506-3.942-16-3.665-8.48.247-19.077-.697-27.398-2.443l-2.898-.608z"/><path fill="#1976D2" fill-opacity=".323" fill-rule="evenodd" d="M87.569 18.488c-3.812 1.345-7.595 3.109-8.406 3.92-1.3 1.301-1.13 1.55 1.431 2.103 10.327 2.23 18.236 7.734 21.54 14.989 3.313 7.274 1.475 21.522-3.971 30.788-1.62 2.755-1.598 2.82 1.849 5.424 1.918 1.45 7.65 6.746 12.738 11.77l9.25 9.133-.015-30.557c-.01-20.099-.347-30.045-.985-29.058-.899 1.391-1.364-1.771-1.354-9.2.001-.935-.445-1.424-.992-1.086-.586.362-.734-.064-.36-1.038.391-1.019.169-1.561-.58-1.414-.668.131-1.152-.545-1.077-1.501.075-.957-.262-1.493-.75-1.191-.488.301-.887.045-.887-.57s-.434-.85-.964-.523c-.529.328-1.914-.355-3.077-1.518-1.162-1.162-2.754-1.868-3.536-1.568-.783.301-1.423.11-1.423-.422 0-1.898-11.414-.957-18.431 1.519M64 31.465c-5.173 2.727-18 13.1-18 14.557 0 .538 1.783.978 3.962.978 7.962 0 19.418 5.947 33.388 17.332 3.218 2.622 6.351 4.601 6.964 4.397 1.738-.58 5.682-9.207 6.931-15.163 1.572-7.494-.18-12.494-6.182-17.648-2.51-2.154-5.149-3.698-5.865-3.429-.716.268-1.059.095-.762-.385.696-1.127-7.202-3.118-12.129-3.057-2.094.025-5.832 1.114-8.307 2.418M33.469 54.74c-7.826 5.737-16.831 17.754-18.499 24.685-.407 1.691-1.099 3.952-1.538 5.024-.747 1.823-.6 1.807 2.291-.252 13.474-9.594 32.629-16.174 51.989-17.857l7.213-.627-5.213-3.722c-9.558-6.825-15.09-9.047-24.035-9.652-7.886-.535-8.321-.449-12.208 2.401m27.83 18.321c-8.536 1.111-20.62 4.576-27.799 7.97-7.565 3.577-18.501 10.881-18.496 12.353.007 2.251 4.066 7.691 7.237 9.699 2.908 1.842 4.283 2.001 12.759 1.479 10.11-.622 20.622-2.965 28.025-6.245 8.372-3.71 24.707-20.985 22.207-23.485-2.59-2.59-12.187-3.3-23.933-1.771M88.177 85.25c-2.237 2.888-6.567 7.71-9.622 10.716-5.66 5.569-6.551 7.034-4.277 7.034 2.88 0 15.652 7.028 21.274 11.707 7.278 6.057 15.777 16.981 21.623 27.793l4.325 8 .271-20.894c.216-16.696-.014-21.328-1.147-23.057C116.459 100.193 95.281 80 92.779 80c-.295 0-2.366 2.362-4.602 5.25M134 90.378c0 .207.787.995 1.75 1.75 1.586 1.243 1.621 1.208.378-.378-1.307-1.666-2.128-2.195-2.128-1.372m5 4c0 .207.787.995 1.75 1.75 1.586 1.243 1.621 1.208.378-.378-1.307-1.666-2.128-2.195-2.128-1.372M6.634 103.25C2.495 110.427.789 116.934.668 126c-.107 8.081 1.548 17 3.155 17 .41 0 1.504-1.283 2.43-2.851 6.801-11.513 23.035-19.905 43.453-22.462l9.479-1.187 2.377-5.845c1.53-3.762 1.926-5.672 1.11-5.359-9.195 3.528-18.093 5.094-29.24 5.147-11.474.054-12.269-.076-16.141-2.635-2.239-1.48-4.681-4.068-5.425-5.75C11.121 100.376 10.191 99 9.798 99s-1.817 1.912-3.164 4.25m61.636 6.965c-3.878 8.018-4.282 16.944-1.153 25.497 1.581 4.322 3.625 7.245 8.071 11.538 3.274 3.162 6.294 5.75 6.711 5.75 1.664 0 18.1-12.19 19.962-14.805 1.897-2.663 1.912-2.954.322-6.237-3.589-7.41-18.188-19.297-26.92-21.92-1.52-.456-3.466-1.117-4.325-1.469-1.033-.422-1.937.136-2.668 1.646M169 121.378c0 .207.787.995 1.75 1.75 1.586 1.243 1.621 1.208.378-.378-1.307-1.666-2.128-2.195-2.128-1.372m-117.5 2.359c-7.313.472-15.93 2.531-22 5.256-6.35 2.851-15.127 10.074-17.398 14.317-1.207 2.254-1.117 2.93.806 6.041 2.572 4.161 10.629 9.727 17.592 12.152 10.871 3.786 26.418 2.923 39.145-2.171l6.423-2.572-3.879-2.852c-6.807-5.007-12.32-14.954-13.651-24.633-.772-5.61-1.163-5.918-7.038-5.538m203.579.846c.048 1.165.285 1.402.604.605.289-.722.253-1.585-.079-1.917s-.568.258-.525 1.312M184.5 136c.995 1.1 2.035 2 2.31 2s-.315-.9-1.31-2-2.035-2-2.31-2 .315.9 1.31 2m-50.655 12.734c-.085 7.021-.283 14.791-.44 17.266-.237 3.75-.099 4.167.828 2.5.612-1.1 2.835-4.343 4.94-7.207 4.011-5.459 4.66-6.891 2.577-5.691-2.199 1.267 8.598-10.249 11.762-12.545 1.093-.793-.937 1.667-4.512 5.468l-6.5 6.912 7-6.401c6.735-6.158 10.862-10.15 8.304-8.032-1.441 1.192-3.126 1.327-2.426.193.273-.442-.825-.711-2.441-.6-1.615.112-2.937-.228-2.937-.756 0-.527-.45-.681-1-.341s-1 .157-1-.406-.954-1.534-2.121-2.159c-1.18-.631-1.848-.693-1.505-.14.338.548-.081 1.262-.932 1.589-1.009.387-1.297.191-.83-.565q.718-1.16-.948-.52c-.915.351-1.664.298-1.664-.118 0-.415-1.35-.858-3-.984l-3-.229zm10.662-9.745c-.35.566.051.734.941.393 1.732-.665 2.049-1.382.611-1.382-.518 0-1.216.445-1.552.989m-42.007 7.159c-2.75 2.769-7.379 6.396-10.287 8.06l-5.287 3.024 3.287 2.408c9.497 6.958 17.742 16.869 21.536 25.887 4.411 10.484 5.39 29.208 2.14 40.928-1.091 3.937-1.074 3.976 3.757 8.5l4.854 4.545.311-22c.352-24.918-.924-40.07-4.42-52.5-2.275-8.091-9.174-24.063-10.341-23.944-.303.031-2.8 2.323-5.55 5.092m89.064-3.855c.376.986.935 1.541 1.243 1.233s.001-1.114-.683-1.793c-.988-.98-1.102-.865-.56.56M251.5 144c.34.55.816 1 1.059 1s.441-.45.441-1-.477-1-1.059-1-.781.45-.441 1m-89 3c-.995 1.1-1.46 2-1.033 2s.218.675-.467 1.5c-1.754 2.113-3.535 1.879-1.903-.25.738-.963.119-.659-1.377.674-2.757 2.457-3.88 4.284-1.337 2.173 1.069-.887 1.521-.79 1.989.429.401 1.046.188 1.366-.633.95-.682-.346-.228.264 1.007 1.355 1.236 1.091 3.036 1.779 4 1.528.965-.25 2.654.267 3.754 1.148 1.926 1.544 1.907 1.562-.5.493-2.387-1.06-2.411-1.039-.529.467 1.085.867 2.51 1.371 3.168 1.118.657-.252 1.444.188 1.747.978s1.042 1.437 1.642 1.437.815-.445.479-.989c-.35-.566.051-.734.941-.393.854.328 1.552.984 1.552 1.458 0 .473.749.574 1.664.223 1.183-.454 1.436-.27.875.638-.592.957-.225 1.098 1.461.563 1.635-.519 2.045-.382 1.5.5-.534.864-.162 1.028 1.291.566 1.122-.356 2.331-.177 2.686.397.361.583 1.788.758 3.233.395 1.815-.456 2.377-.307 1.88.496-.439.711.029 1.146 1.234 1.146 1.983 0 3.243-2.692 3.044-6.5-.069-1.314-.367-.97-.868 1l-.763 3-.134-3c-.073-1.65-.553-3.663-1.066-4.474-.614-.971-.524-1.732.266-2.234.81-.516.632-.766-.553-.777-.963-.008-1.767-.353-1.788-.765-.02-.412-1.661-2.55-3.645-4.75-1.985-2.2-3.054-3.232-2.377-2.294 1.328 1.839.679 3.803-1.249 3.779-.716-.01-.592-.403.309-.985 1.349-.872.725-1.43-1.25-1.118-.412.065-.764-.669-.782-1.632-.029-1.595-.141-1.607-1.263-.133-1.066 1.4-1.41 1.425-2.57.182-1.159-1.24-1.576-1.188-3.091.384-1.201 1.246-1.405 2.048-.648 2.552.781.52.756.739-.087.75-.655.008-1.474-.442-1.819-1.001-.346-.559-1.047-.758-1.559-.441-.512.316-.931.079-.931-.528 0-.606-.562-1.03-1.25-.94-3.235.42-4.028-.035-2.75-1.575 1.854-2.234.594-1.814-1.5.5m32.363-.703c.75.925 1.839 1.387 2.42 1.028.627-.388.831-.064.501.797-.306.797.273 3.009 1.288 4.914 1.014 1.905 1.863 3.104 1.886 2.664s-.645-2.127-1.484-3.75c-.839-1.622-1.3-2.95-1.025-2.95 1.385 0 3.936 7.228 4.511 12.782.563 5.433.44 6.203-.905 5.691-1.139-.433-1.259-.293-.45.523 1.228 1.238 6.689.288 5.879-1.022-.652-1.054 6.159-3.313 7.496-2.486.561.346 1.02.105 1.02-.536 0-.643.696-.899 1.552-.57 1.014.389 1.304.193.836-.563q-.715-1.158.936-.525c.954.366 1.551.174 1.414-.455-.131-.599.387-1.316 1.151-1.594.906-.329 1.125-.076.63.725-.591.956-.288.977 1.36.095 2.568-1.375 2.784-2.215.371-1.441-1.187.382-.946-.139.75-1.618 1.375-1.199 1.861-1.842 1.08-1.429-1.02.54-1.251.311-.819-.814.601-1.567-1.458-1.9-2.89-.467-.378.378-1.178.279-1.779-.22-.601-.498-1.542-1.057-2.092-1.241s-.888-.673-.75-1.085c.137-.412-.252-.75-.867-.75-.659 0-.884.922-.549 2.25.547 2.173.517 2.184-.884.309-.797-1.068-1.45-1.575-1.45-1.128s-.596.319-1.324-.285c-.966-.802-1.641-.781-2.5.078-.901.901-1.176.871-1.176-.131 0-.725-.639-1.062-1.435-.756-.79.303-1.656.013-1.924-.643-.361-.883-.737-.84-1.44.163-.693.988-1.144 1.044-1.662.206-.391-.633-.167-1.806.497-2.607.957-1.153.923-1.488-.164-1.608a21.6 21.6 0 0 1-4.122-.858 15 15 0 0 0-1.5-.38c-.412-.077-1.425-.558-2.25-1.067-1.292-.798-1.311-.694-.137.754M186 148.378c0 .207.787.995 1.75 1.75 1.586 1.243 1.621 1.208.378-.378-1.307-1.666-2.128-2.195-2.128-1.372m48.946 3.372-3.446 3.75 3.75-3.446c3.49-3.208 4.21-4.054 3.446-4.054-.167 0-1.854 1.688-3.75 3.75m2.845 6.649c-3.69 3.472-9.168 7.6-12.174 9.174s-5.252 3.209-4.99 3.633-.175.521-.972.215c-.798-.306-2.045.081-2.773.86s-2.194 1.189-3.259.91c-1.411-.369-1.716-.15-1.125.806.521.843.42 1.07-.283.636-1.314-.812-9.349.341-8.781 1.26.219.354-1.378.474-3.549.267-3.673-.35-4.293-.004-8.916 4.972-2.733 2.942-4.969 5.691-4.969 6.108 0 1.309 18.104.826 27-.72 10.931-1.899 21.876-5.874 25.644-9.313 1.631-1.489 2.041-2.042.911-1.228-1.253.901-.884.12.945-2 1.65-1.914 3.563-4.485 4.25-5.715 1.497-2.679 1.652-5.63.25-4.764-.55.34-1 .141-1-.441s.675-1.059 1.5-1.059c1.049 0 1.465-.976 1.384-3.25-.064-1.787-.322-2.463-.573-1.5-.252.963-1.086 1.75-1.853 1.75-.897 0-1.175-.625-.779-1.75.502-1.429.368-1.52-.732-.5-2.81 2.607-3.191 1.114-.447-1.75 4.824-5.035 2.379-3.271-4.709 3.399M6.57 154.678c-.89 2.32-.66 9.458.432 13.387 3.504 12.617 22.951 21.475 45.496 20.726l8.743-.291-4.145-5c-2.28-2.75-5.075-6.912-6.21-9.25-2-4.118-2.212-4.25-6.839-4.25-12.062 0-25.119-5.019-32.652-12.553-3.21-3.21-4.395-3.89-4.825-2.769M160.5 156c.34.55.816 1 1.059 1s.441-.45.441-1-.477-1-1.059-1-.781.45-.441 1m62.083-.134c-.431.697-.513 1.537-.183 1.867.895.895 1.871-.421 1.387-1.871-.338-1.016-.574-1.016-1.204.004m5.289 1.884c-1.243 1.586-1.208 1.621.378.378 1.666-1.307 2.195-2.128 1.372-2.128-.207 0-.995.787-1.75 1.75M201.158 159c0 1.375.227 1.938.504 1.25.278-.687.278-1.812 0-2.5-.277-.687-.504-.125-.504 1.25m36.295 1.052c-1.022 1.129-4.518 3.829-7.769 6-6.837 4.566-6.624 5.401.252.989 4.225-2.711 11.161-9.041 9.906-9.041-.293 0-1.368.924-2.389 2.052m10.626-.469c.048 1.165.285 1.402.604.605.289-.722.253-1.585-.079-1.917s-.568.258-.525 1.312m-172.615 4.062c-3.28 1.337-8.889 3.183-12.464 4.102s-6.646 1.76-6.824 1.869c-.668.409 2.844 6.23 6.712 11.124 2.593 3.279 7.649 7.442 14.31 11.783 15.7 10.229 22.519 17.526 27.253 29.161 2.656 6.529 3.021 6.01 4.715-6.714 2.62-19.678-4.667-36.004-22.033-49.368l-5.705-4.39zm71.182.674c-3.326 4.5-4.199 6.141-2.812 5.284.735-.454.935-.164.56.813-.321.837-1.104 1.422-1.739 1.302s-1.093.565-1.018 1.521c.075.957-.214 1.522-.644 1.257-.884-.547-3.363 5.129-6.116 14.004-1.579 5.088-1.863 9.382-1.869 28.25-.005 12.238.342 22.25.77 22.25s1.44-.794 2.25-1.764c6.626-7.937 6.707-8.093 6.819-13.064.151-6.675 3.424-15.07 8.261-21.19 3.693-4.671 6.848-7.019 23.944-17.819 8.016-5.065 12.912-9.86 10.857-10.634-3.989-1.503-12.493-3.286-13.298-2.789-.526.325-.573.007-.109-.743.604-.977.26-1.168-1.347-.748-1.187.311-1.935.204-1.662-.237.665-1.077-2.395-2.191-3.738-1.361-.585.362-.792.217-.459-.321.333-.539-1.43-1.968-3.918-3.177s-4.243-1.743-3.899-1.187c.365.591-.017.765-.921.418-.851-.327-1.252-1.109-.892-1.739s.324-.849-.081-.486c-.405.362-2.053.281-3.662-.181-2.585-.741-3.202-.468-5.277 2.341m1.226-.569c-1.243 1.586-1.208 1.621.378.378.963-.755 1.75-1.543 1.75-1.75 0-.823-.821-.294-2.128 1.372M159 165.43c0 .275.9.981 2 1.57s2 .845 2 .57-.9-.981-2-1.57-2-.845-2-.57m86.313 3.651c-1.188 2.168-1.741 3.683-1.229 3.367 1.109-.685 4.21-6.487 3.726-6.972-.186-.185-1.31 1.437-2.497 3.605M214 193.031c-5.448 1.291-12.014 1.81-24 1.895-13.972.1-17.148.412-20.732 2.039-4.861 2.207-13.78 10.191-15.845 14.185l-1.403 2.712 5.727 1.189c8 1.661 23.827 1.373 31.322-.569 11.71-3.034 27.47-12.813 32.868-20.394 2.529-3.551 2.565-3.546-7.937-1.057m-181.886 2.977c6.27 7.831 18.806 15.594 29.946 18.544 9.331 2.471 29.94 2.129 29.94-.497 0-2.708-9.268-10.664-19.088-16.383-4.273-2.489-5.406-2.672-16.5-2.678-10.981-.005-20.607-.969-25.645-2.568-1.677-.532-1.438.103 1.347 3.582"/><path fill="#1976D2" fill-opacity=".375" fill-rule="evenodd" d="M28.174 64.603c.896.896 2.109 1.464 2.695 1.263s-.147-.935-1.629-1.629c-2.491-1.168-2.572-1.14-1.066.366M27 68.941c0 1.682-.408 3.059-.906 3.059s-.679-.87-.401-1.932c.413-1.58.107-1.828-1.679-1.361-1.201.314-2.417 1.18-2.703 1.926s-.873 1.138-1.303.872-.72.16-.645.947-.263 1.419-.751 1.404c-1.022-.031-2.581 2.17-2.581 3.644 0 .55.436.325.969-.5.828-1.282.972-1.246.985.25.008.963-.66 1.75-1.485 1.75s-1.506.338-1.514.75c-.007.412-.299 1.817-.648 3.12-.629 2.35-.611 2.355 2.005.641 1.452-.952 2.349-2.2 1.994-2.775-.376-.608-.164-.747.507-.333.634.392 2.166-.044 3.404-.968 1.412-1.054 1.618-1.468.553-1.109-1.215.409-1.536.147-1.127-.92.315-.821.802-1.264 1.081-.984.938.938 4.309-1.509 3.618-2.627-.413-.669-.224-.821.481-.385 2.103 1.3 4.886-.311 4.636-2.684-.329-3.12-.32-3.112-2.013-1.707-1.263 1.048-1.422 1.001-.932-.276.325-.848.111-1.838-.477-2.201-.668-.413-1.068.484-1.068 2.399m-4.49 6.075c.346.559 1.047.758 1.559.441C25.456 74.6 25.198 74 23.441 74c-.857 0-1.276.457-.931 1.016m4.997.973c-.35.566.051.734.941.393 1.732-.665 2.049-1.382.611-1.382-.518 0-1.216.445-1.552.989m-11.943 5.718c-.542 1.425-.428 1.54.56.56.684-.679.991-1.486.683-1.793-.308-.308-.867.247-1.243 1.233m11.877 2.848c-1.864 1.494-1.852 1.512.309.465 1.238-.6 2.25-1.3 2.25-1.555 0-.765-.519-.544-2.559 1.09m.785 1.449c-3.801 2.317-4.592 2.477-3.698.746.355-.687-.333-.125-1.528 1.25s-1.823 1.825-1.395 1c.686-1.321.548-1.327-1.163-.045-5.671 4.251-5.536 3.94-3.475 7.981 2.341 4.588 3.546 5.587 8.309 6.887 4.194 1.144 23.104-.3 25.724-1.965 1.183-.752 1.077-.855-.5-.49-4.252.986-12.039 1.544-9.5.681 1.375-.467 3.737-.894 5.25-.949 1.781-.065 2.75-.649 2.75-1.659 0-.924-.47-1.268-1.155-.846-.721.446-.882.274-.43-.457.398-.644 1.115-.929 1.594-.633.478.296.801-.371.718-1.483-.171-2.262-1.294-2.682-2.065-.772-.365.905-.526.862-.583-.155-.06-1.065-.587-.945-2.179.496-1.626 1.471-2.051 1.563-1.882.405.121-.823.166-2.339.1-3.368-.099-1.579-.362-1.67-1.674-.581-1.287 1.068-1.504 1.046-1.25-.128.175-.814-.406-1.365-1.365-1.293-.944.071-1.465-.411-1.198-1.107.264-.687-.874-1.791-2.566-2.492-1.672-.693-2.794-1.657-2.493-2.143.9-1.456-.869-1.001-4.346 1.12m47.72 1.746L72.5 91.5l3.75-3.446c2.063-1.896 3.75-3.583 3.75-3.75 0-.764-.846-.044-4.054 3.446m3.978 7L77.5 97.5l2.75-2.424C82.82 92.81 83.459 92 82.674 92c-.179 0-1.416 1.237-2.75 2.75m-70.605 5.638c.377.984.252 1.465-.295 1.127-1.648-1.019-6.09 9.331-7.537 17.558-1.331 7.569-1.073 12.853 1.034 21.177.915 3.614 1.636 3.47 3.928-.785 4.607-8.555 19.913-17.926 33.551-20.54 3.575-.685 6.79-1.685 7.143-2.222.354-.537 2.917-1.195 5.695-1.461 4.481-.431 5.165-.812 6.057-3.37 1.116-3.202 1.874-3.119-7.895-.863-5.219 1.205-14.041 2.066-11 1.074 2.122-.693-6.957-1.234-20.272-1.208-.974.002-1.51-.419-1.191-.936.535-.865-.882-1.377-2.861-1.033-.454.079-.58-.252-.281-.736s-.568-1.923-1.926-3.199S11 102.081 11 101.385c0-.697-.526-1.592-1.17-1.99-.794-.491-.958-.171-.511.993M61 106c-1.282.828-1.246.972.25.985.962.008 1.75-.435 1.75-.985 0-1.22-.113-1.22-2 0m-10.5 3c-1.261.542-1.445.859-.5.859.825 0 2.4-.386 3.5-.859 1.261-.542 1.445-.859.5-.859-.825 0-2.4.386-3.5.859m-4.687 1.683c.721.289 1.584.253 1.916-.079s-.258-.568-1.312-.525c-1.165.048-1.402.285-.604.604M92.5 112c.995 1.1 2.035 2 2.31 2s-.315-.9-1.31-2-2.035-2-2.31-2 .315.9 1.31 2m-21.807 2.769c-2.286.506-3.647 4.053-3.856 10.046l-.163 4.685L66 124l-.674-5.5-.085 5.5c-.093 5.941 2.834 15.649 4.601 15.262.597-.131.836.412.531 1.207C69.687 142.258 79.185 152 81.615 152c2.551 0 11.479-6.039 10.727-7.256-.376-.608-.173-.758.479-.355 1.647 1.018 10.542-7.426 9.217-8.751-.571-.571-1.031-1.511-1.023-2.088s.493-.375 1.076.45c.943 1.333 1.016 1.333.652 0-.225-.825-.951-1.5-1.613-1.5-1.208 0-3.086-2.297-3.115-3.809-.008-.445.548-.488 1.235-.095.688.392-.072-.706-1.687-2.441S94.415 123 94.158 123s.355.909 1.36 2.02c1.79 1.978 1.777 2.011-.595 1.574-1.333-.245-2.761-.479-3.173-.52s-.75-1.226-.75-2.633c0-1.77.385-2.334 1.25-1.828.688.402.393-.247-.655-1.441-2.128-2.426-3.547-3.024-1.595-.672.928 1.118.944 1.5.063 1.5-.649 0-.92.423-.6.939.319.517-.298.874-1.372.793s-1.871-.616-1.772-1.19c.1-.573-.381-.93-1.069-.792s-1.25-.112-1.25-.555-1.463-.78-3.25-.75c-2.088.035-3.161-.392-3-1.195.138-.687-.11-1.25-.55-1.25s-1.406.563-2.147 1.25c-1.077 1-1.205 1-.641 0 .408-.721.152-1.256-.603-1.265-1.06-.013-1.055-.177.025-.861 1.112-.705 1.112-.921 0-1.3-.734-.25-2.147-.275-3.141-.055M100.5 119c2.709 2.75 5.15 5 5.425 5s-1.716-2.25-4.425-5-5.15-5-5.425-5 1.716 2.25 4.425 5m-34.421-2.417c.048 1.165.285 1.402.604.605.289-.722.253-1.585-.079-1.917s-.568.258-.525 1.312m-23.329.079c.688.278 1.813.278 2.5 0 .688-.277.125-.504-1.25-.504s-1.937.227-1.25.504m9.5.027c.962.252 2.538.252 3.5 0 .962-.251.175-.457-1.75-.457s-2.712.206-1.75.457m57.75 6.87c0 .957-.483 1.286-1.25.853-1-.564-1-.436 0 .641 1.872 2.017 1.506 3.385-.5 1.868-1.511-1.143-1.572-1.126-.45.127.715.799 1.84 1.452 2.5 1.452s1.252 1.042 1.317 2.317c.064 1.274.681 2.849 1.372 3.5.977.92.97.628-.03-1.317-1.182-2.297-1.149-2.387.4-1.109.988.816 1.449 2.14 1.112 3.199-.347 1.094.237 2.618 1.478 3.859 1.128 1.128 1.817 2.051 1.531 2.051s.398 1.8 1.52 4 2.144 3.999 2.27 3.998c.127-.001.33-1.464.453-3.25.164-2.394-.029-2.854-.735-1.748-.651 1.021-.962-1.315-.973-7.309-.009-5.614-.378-8.585-1.015-8.191-.55.34-1-.084-1-.941s-.75-1.559-1.667-1.559c-.916 0-1.373-.293-1.015-.651.776-.776-2.285-3.272-4.068-3.317-.687-.018-1.25.67-1.25 1.527m-63.5.907c-.55.17-3.7.886-7 1.592-11.226 2.4-23.488 10.151-27.095 17.126-1.795 3.472-1.06 5.089 4.673 10.267 12.541 11.33 34.476 13.319 54.523 4.942l3.288-1.373-5.474-5.474c-3.011-3.011-6.52-7.732-7.798-10.49s-2.584-4.756-2.903-4.437-.333-.36-.033-1.508c.357-1.365-.012-2.301-1.068-2.706-.959-.368-1.613-1.768-1.613-3.454 0-2.61-.339-2.867-4.25-3.219l-4.25-.383 4.687-.174c4.581-.171 4.695-.102 5.09 3.075.397 3.2.405 3.192.563-.5L58 124l-5.25.079c-2.888.043-5.7.218-6.25.387m-3.75 2.196c.688.278 1.813.278 2.5 0 .688-.277.125-.504-1.25-.504s-1.937.227-1.25.504M121.232 132c0 1.925.206 2.713.457 1.75.252-.963.252-2.537 0-3.5-.251-.963-.457-.175-.457 1.75m-54.153-.417c.048 1.165.285 1.402.604.605.289-.722.253-1.585-.079-1.917s-.568.258-.525 1.312M121.158 138c0 1.375.227 1.938.504 1.25.278-.687.278-1.812 0-2.5-.277-.687-.504-.125-.504 1.25m-23.234 1.75L95.5 142.5l2.75-2.424c1.513-1.334 2.75-2.571 2.75-2.75 0-.785-.81-.146-3.076 2.424m5.01 6.218c-2.511 2.558-6.927 6.18-9.812 8.05l-5.246 3.399 4.312 3.483c12.048 9.729 19.212 20.018 22.351 32.1 1.326 5.101 1.57 9.084 1.136 18.5-.304 6.6-1.021 13.54-1.593 15.422-1.189 3.907-.854 4.507 5.18 9.286l3.955 3.132-.495-26.92c-.53-28.838-1.723-38.967-6.174-52.433-2.062-6.237-8.258-19.386-8.873-18.829-.096.088-2.23 2.252-4.741 4.81M6.425 156.546c-1.689 9.006 2.889 18.904 11.176 24.164 7.478 4.745 16.202 6.948 30.801 7.777l12.903.732-4.565-5.86c-2.51-3.222-5.428-7.434-6.484-9.359-1.88-3.428-2.083-3.514-9.838-4.181-13.332-1.146-23.022-5.318-29.815-12.837l-3.527-3.904zm67.075 8.037c-3.3 1.374-8.025 2.97-10.5 3.547-2.475.576-5.066 1.22-5.758 1.431-1.902.578 3.691 9.021 9.954 15.024 2.917 2.797 8.848 7.251 13.18 9.9 10.613 6.487 17.687 13.891 22.543 23.592l3.947 7.886 1.146-5.52c2.519-12.136 1.065-25.507-3.81-35.036-4.292-8.388-19.396-23.491-23.368-23.365-.733.024-4.034 1.167-7.334 2.541M30 192.997c0 .449 3.102 3.688 6.894 7.199 12.424 11.503 26.018 16.328 43.859 15.568 5.639-.24 10.589-.776 11-1.192 1.116-1.13-10.776-11.904-17.469-15.826l-5.845-3.426-13.97-.17c-8.245-.101-16.12-.744-19.219-1.57-2.888-.769-5.25-1.032-5.25-.583"/></svg>