<svg xmlns="http://www.w3.org/2000/svg" width="256" height="256"><path fill="#1976D2" fill-opacity=".016" fill-rule="evenodd" d="M0 128.004v128.004l128.25-.254 128.25-.254.254-127.75L257.008 0H0zm.485.496c0 70.4.119 99.053.265 63.672s.146-92.98 0-128S.485 58.1.485 128.5"/><path fill="#1976D2" fill-opacity=".059" fill-rule="evenodd" d="m72.5 31.852-55 31.781v128.723l55.28 31.914 55.281 31.913 55.219-31.876 55.22-31.877V63.561l-55-31.776C153.25 14.309 128.275.024 128 .041s-25.25 14.332-55.5 31.811"/><path fill="#1976D2" fill-opacity=".25" fill-rule="evenodd" d="M115 37.346c-5.775 3.386-24.562 14.243-41.75 24.127L42 79.443l.015 49.029.015 49.028 41.52 23.853c22.836 13.119 42.291 24.02 43.235 24.225.943.205 20.615-10.547 43.715-23.895l42-24.267.26-48.69.259-48.689-3.759-2.337c-13.062-8.118-81.214-46.683-82.361-46.605-.77.053-6.124 2.866-11.899 6.251m7.571 7.225c-1.839 1.839-2.071 2.856-.419 1.835.633-.391 3.346-.693 6.03-.67 4.052.034 4.683-.194 3.726-1.347-1.557-1.876-7.393-1.761-9.337.182M54.723 82.75c-1.499 1.652-1.242 1.73 4.568 1.4 5.56-.316 5.971-.486 4.241-1.75-2.632-1.925-6.9-1.756-8.809.35m136.003 0c-1.491 1.648-1.238 1.75 4.345 1.75 6.16 0 7.294-.699 3.995-2.465-2.914-1.559-6.565-1.246-8.34.715m-71.269 31.113c-6.312 3.849-8.681 11.037-5.916 17.947 2.094 5.234 6.364 8.382 11.8 8.699 2.288.134 3.147.044 1.909-.2-1.721-.338-2.25-1.131-2.25-3.375 0-2.477.397-2.934 2.545-2.934 3.311 0 7.455-4.187 7.455-7.531 0-3.169-4.958-8.469-7.923-8.469-2.675 0-2.96-4.623-.327-5.311.98-.256.43-.506-1.25-.569-1.65-.062-4.369.722-6.043 1.743M55.059 158.75c-2.117 1.714-2.057 1.743 2.919 1.402 2.958-.203 5.799.162 6.801.874.947.673.458.042-1.085-1.401-3.276-3.065-5.634-3.304-8.635-.875m136.001 0c-2.113 1.712-2.027 1.75 3.94 1.75s6.053-.038 3.94-1.75c-1.189-.963-2.962-1.75-3.94-1.75s-2.751.787-3.94 1.75m-68.489 38.821c-1.839 1.839-2.071 2.856-.419 1.835.633-.391 3.346-.693 6.03-.67 4.052.034 4.683-.194 3.726-1.347-1.557-1.876-7.393-1.761-9.337.182"/><path fill="#1976D2" fill-opacity=".729" fill-rule="evenodd" d="M84.75 55.328 43 79.447l.008 49.027.009 49.026L82.126 200c21.51 12.375 40.519 23.24 42.242 24.144l3.132 1.644 42-24.185 42-24.186.224-48.958.224-48.959-41.967-23.998c-23.082-13.198-42.307-24.064-42.724-24.145-.416-.082-19.544 10.705-42.507 23.971m36.617-16.41c-4.67 2.848-6.367 5.887-6.367 11.405 0 4.213.463 5.34 3.4 8.277 1.87 1.87 4.345 3.4 5.5 3.4 2.065 0 2.1.341 2.1 20.486v20.485l-4.533 1.142c-2.911.733-6.31 2.738-9.499 5.606-10.986 9.877-10.135 25.831 1.866 34.985 2.378 1.814 6.052 3.574 8.165 3.912 2.992.478 3.978 1.157 4.458 3.068.338 1.349.562 10.494.497 20.323l-.118 17.87-2.876.632c-4.503.989-8.96 6.747-8.96 11.575 0 7.989 4.911 12.916 12.874 12.916 7.127 0 13.048-7.269 11.714-14.382-.859-4.58-3.903-8.241-8.118-9.765l-3.47-1.255V149l2.25-.022c3.34-.033 9.855-3.296 13.143-6.585 13.143-13.143 6.062-34.905-12.643-38.851l-2.75-.58V63.027l3.25-1.385c10.754-4.581 11.532-18.91 1.26-23.202-4.614-1.928-7.392-1.809-11.143.478m.889 1.111c-2.718 1.093-6.247 6.608-6.252 9.771-.006 3.567 2.731 8.012 5.963 9.683 4.892 2.53 8.803 1.947 12.633-1.883 2.787-2.787 3.4-4.157 3.4-7.6s-.613-4.813-3.4-7.6c-3.558-3.558-7.505-4.316-12.344-2.371m-.231 3.946c-6.303 6.303-.28 15.615 8.246 12.747 3.239-1.09 4.729-3.447 4.729-7.482 0-6.147-8.602-9.638-12.975-5.265M55.286 76.099C47.54 78.363 44.268 89.6 49.533 95.857c4.666 5.545 11.592 6.326 17.677 1.994l2.832-2.017 8.229 5.251a977 977 0 0 1 15.56 10.168c4.033 2.705 7.526 4.723 7.763 4.486s-6.522-5.048-15.021-10.691L71.119 94.789l.571-4.816c1.15-9.717-7.01-16.619-16.404-13.874m135.129.322c-1.696.739-4.103 2.634-5.348 4.211-1.887 2.392-2.196 3.794-1.864 8.442l.399 5.574-15.287 9.926c-8.408 5.459-15.294 10.279-15.301 10.711-.019 1.072 2.988-.604 12.986-7.237 4.675-3.102 10.838-7.113 13.696-8.913l5.196-3.274 2.837 2.097c6.376 4.714 14.68 2.903 18.502-4.035 3.626-6.582.548-14.358-6.949-17.552-3.921-1.671-4.927-1.665-8.867.05M53.353 78.87C44.581 84.376 48.466 99 58.701 99c6.877 0 11.242-4.155 11.277-10.734.045-8.664-9.34-13.968-16.625-9.396m136.067-.041C180.103 84.681 184.189 99 195.177 99c3.242 0 4.683-.66 7.423-3.4 2.757-2.757 3.4-4.173 3.4-7.484 0-8.481-9.442-13.77-16.58-9.287m-135.9 4.329c-3.175 3.774-2.804 7.129 1.181 10.684 2.016 1.799 3.342 2.205 5.712 1.747 6.587-1.27 9.005-9.542 3.952-13.516-3.888-3.059-7.677-2.679-10.845 1.085m136.681-1.13c-4.312 4.017-3.774 9.24 1.294 12.56 3.057 2.004 7.92 1.085 10.004-1.89 5.226-7.462-4.69-16.827-11.298-10.67m-68.437 23.968c-11.038 3.323-17.726 15.003-14.805 25.853 1.343 4.985 6.659 11.268 11.466 13.548 6.766 3.211 17.828 1.468 23.443-3.695 5.669-5.211 7.932-17.228 4.52-24.002-2.767-5.493-7.514-9.66-12.792-11.227-5.457-1.621-7.73-1.712-11.832-.477m1.236 4.975c-5.71 1.824-8.443 4.043-10.147 8.241-2.354 5.798-2.245 9.545.413 14.194 3.174 5.551 6.739 7.849 12.943 8.347 4.347.349 5.899.008 8.699-1.914 5.742-3.941 7.592-7.27 7.592-13.662 0-6.967-2.839-11.518-8.901-14.272-4.397-1.996-6.652-2.195-10.599-.934m-37.881 36.094-15.381 10.037-2.337-2.195c-1.535-1.442-4.057-2.36-7.36-2.677-4.793-.461-5.208-.299-9.032 3.526-3.55 3.55-4.009 4.551-4.009 8.744s.459 5.194 4.009 8.744c3.836 3.836 4.227 3.988 9.093 3.52 4.002-.384 5.756-1.16 8.241-3.646 2.865-2.865 3.158-3.733 3.163-9.388l.005-6.23 15.482-10.25c8.516-5.637 15.038-10.244 14.495-10.236s-7.91 4.53-16.369 10.051M153 137.493c0 .271 6.919 5.005 15.375 10.521l15.375 10.028-.503 4.462c-.645 5.722 1.127 9.946 5.239 12.487 6.438 3.979 15.236 1.312 18.074-5.481 1.936-4.634 1.808-7.394-.52-11.211-3.869-6.347-12.055-8.135-18.187-3.974l-3.426 2.325-14.964-9.804C155.426 137.65 153 136.271 153 137.493M51.766 156.918c-8.806 7.868.692 22.26 11.665 17.675 4.481-1.872 6.569-5.176 6.569-10.392 0-3.48-.587-4.942-2.923-7.278-4.148-4.148-10.672-4.15-15.311-.005m136.345-.358c-8.765 7.375-.987 21.817 9.979 18.531 7.076-2.12 9.925-9.293 6.4-16.111-1.913-3.698-4.319-4.98-9.348-4.98-2.821 0-4.879.75-7.031 2.56M56 157.294c-3.775 1.91-5.478 6.138-3.953 9.819 4.134 9.981 18.207 3.531 14.332-6.568-.585-1.525-5.332-4.562-7.079-4.53-.44.008-1.925.584-3.3 1.279m136.308-.284c-3.422 1.378-5.594 5.412-4.817 8.948 1.326 6.037 8.605 8.037 13.054 3.587 3.996-3.995 2.986-9.604-2.229-12.382-2.518-1.34-3.028-1.354-6.008-.153m-72.197 37.55c-8.48 7.135-1.723 21.091 9.217 19.038 6.968-1.307 10.63-9.206 7.477-16.126-2.603-5.713-11.517-7.268-16.694-2.912m5.243.201c-5.623.919-7.9 9.759-3.443 13.368 3.231 2.617 8.231 2.414 10.915-.443 5.134-5.466.106-14.162-7.472-12.925"/></svg>