<svg xmlns="http://www.w3.org/2000/svg" width="256" height="256"><path fill="#1976D2" fill-opacity=".016" fill-rule="evenodd" d="M0 128.004v128.004l128.25-.254 128.25-.254.254-127.75L257.008 0H0zm.485.496c0 70.4.119 99.053.265 63.672s.146-92.98 0-128S.485 58.1.485 128.5"/><path fill="#1976D2" fill-opacity=".083" fill-rule="evenodd" d="M191 109.46c-26.727 6.269-47.936 14.034-74.5 27.273-12.214 6.088-22.84 12.261-22.202 12.898.229.229 4.148-1.182 8.71-3.135 21.65-9.266 59.304-19.824 84.235-23.619 18.86-2.87 39.83-3.104 48.187-.538 8.097 2.487 12.57 6.968 12.57 12.593 0 2.273-.681 5.762-1.513 7.754-2.006 4.801-1.278 5.217 1.882 1.075 9.307-12.203 9.167-24.858-.344-31.11-7.135-4.69-12.623-5.917-28.025-6.265-13.599-.307-15.401-.116-29 3.074M60 123.967c-13.011 2.992-24.56 6.905-37.024 12.544-12.08 5.465-21.369 10.429-20.723 11.076.189.189 3.022-.734 6.295-2.051 19.956-8.03 44.196-13.49 62.952-14.181 13.24-.487 14.244-.389 18.5 1.815 4.25 2.2 4.531 2.608 5.05 7.33l.55 5 2.178-4.5c2.866-5.922 2.777-9.187-.353-12.907-5.073-6.029-21.35-7.824-37.425-4.126"/><path fill="#1976D2" fill-opacity=".257" fill-rule="evenodd" d="M206.5 106.589c-1.1.266-7.4 1.639-14 3.05-26.141 5.59-49.06 14.035-78.5 28.922-15.072 7.622-22.342 12.07-14.5 8.871 43.312-17.667 91.615-28.469 121.5-27.17 21.894.952 30.409 7.417 26.57 20.172-1.93 6.412.277 4.56 4.401-3.692 9.145-18.301-2.467-29.481-31.471-30.299-6.6-.186-12.9-.12-14 .146m-141 16.957c-11.234 2.077-27.206 6.933-37.366 11.361-8.94 3.896-20.149 9.678-16.634 8.58 28.477-8.892 43.367-12.233 58.571-13.141 17.049-1.018 25.884 2.336 25.964 9.856l.036 3.298L97.5 141c.786-1.375 1.445-4.372 1.465-6.661.029-3.428-.499-4.61-2.996-6.712-5.73-4.821-17.754-6.432-30.469-4.081"/><path fill="#1976D2" fill-opacity=".357" fill-rule="evenodd" d="M207 107.062c-8.785 1.306-33.548 7.52-45.346 11.379-12.781 4.18-27.198 10.324-45.154 19.242-14.071 6.989-18.281 9.767-9.5 6.269 20.021-7.976 53.359-17.361 74.06-20.849 35.46-5.974 56.762-4.549 64.94 4.344 2.098 2.281 2.494 3.682 2.464 8.704-.031 5.116.15 5.73 1.249 4.227 1.777-2.43 5.287-12.022 5.287-14.448 0-3.545-2.615-8.385-6.26-11.585-7.5-6.585-25.415-9.711-41.74-7.283"/></svg>